<svg version="1.1"
	 xmlns="http://www.w3.org/2000/svg" xmlns:xlink="http://www.w3.org/1999/xlink" xmlns:a="http://ns.adobe.com/AdobeSVGViewerExtensions/3.0/"
	 x="0px" y="0px" width="51.9px" height="41px" viewBox="0 0 51.9 41" style="enable-background:new 0 0 51.9 41;"
	 xml:space="preserve">
<style type="text/css">
	.st0{fill:none;stroke:#0f2c5b;stroke-width:2;stroke-linecap:round;stroke-linejoin:round;stroke-miterlimit:10;}
	.st1{fill:#0f2c5b;stroke:#0f2c5b;stroke-miterlimit:10;}
	.st2{fill:#0f2c5b;}
</style>
<defs>
</defs>
<g>
	<path class="st0" d="M46.9,24.6C46.9,37.5,37.5,40,26,40S5,37.5,5,24.6S14.4,1,26,1S46.9,11.7,46.9,24.6z"/>
	<ellipse class="st1" cx="26" cy="21" rx="2.2" ry="1"/>
	<path class="st0" d="M36.6,29.3c0,0,0.4,2.2-3.3,1.5c-3.7-0.7-5.3-2.4-7.7-2.4s-4,1.7-7.7,2.4c-3.7,0.7-3.3-1.5-3.3-1.5"/>
	<g>
		<g>
			<circle class="st2" cx="16.2" cy="18.9" r="2.4"/>
			<circle class="st2" cx="35" cy="18.9" r="2.4"/>
		</g>
		<line class="st0" x1="14.8" y1="15" x2="16.4" y2="14.4"/>
		<line class="st0" x1="37.1" y1="15" x2="35.6" y2="14.4"/>
	</g>
	<line class="st0" x1="25.6" y1="21.7" x2="25.6" y2="27.7"/>
	<g>
		<path class="st0" d="M11.9,22.8c0,0-4.9-2.9-10.9-1.4"/>
		<path class="st0" d="M10.6,26.4c0,0-4.4-1.5-9.6,0"/>
		<path class="st0" d="M10,30.3c0,0-6.1-0.5-9,3"/>
	</g>
	<g>
		<path class="st0" d="M40.1,22.8c0,0,4.9-2.9,10.9-1.4"/>
		<path class="st0" d="M41.3,26.4c0,0,4.4-1.5,9.6,0"/>
		<path class="st0" d="M41.9,30.3c0,0,6.1-0.5,9,3"/>
	</g>
</g>
</svg>