<svg version="1.1"
	 xmlns="http://www.w3.org/2000/svg" xmlns:xlink="http://www.w3.org/1999/xlink" xmlns:a="http://ns.adobe.com/AdobeSVGViewerExtensions/3.0/"
	 x="0px" y="0px" width="46.5px" height="47.4px" viewBox="0 0 46.5 47.4" style="enable-background:new 0 0 46.5 47.4;"
	 xml:space="preserve">
<style type="text/css">
	.st0{fill:#b7373a;}
	.st1{fill:#b7373a;stroke:#b7373a;stroke-miterlimit:10;}
	.st2{fill:none;stroke:#b7373a;stroke-width:2;stroke-linecap:round;stroke-linejoin:round;stroke-miterlimit:10;}
</style>
<defs>
</defs>
<g>
	<g>
		<circle class="st0" cx="16.2" cy="23.3" r="1.8"/>
		<circle class="st0" cx="30.2" cy="23.3" r="1.8"/>
	</g>
	<ellipse class="st1" cx="23.3" cy="40.7" rx="3.7" ry="1.7"/>
	<path class="st2" d="M38.6,21.3c0,8.4-6.8,25.1-15.3,25.1S8,29.7,8,21.3S14.8,6,23.3,6S38.6,12.8,38.6,21.3z"/>
	<path class="st2" d="M10,13.6c-1.4-0.3-2.8-1-3.6-1.8C5,10.3,5,7.9,6.5,6.5s3.9-1.5,5.4,0c0.7,0.7,1.3,1.9,1.7,3.1
		c0.9-0.8,2-1.4,3.1-2c-0.7-1.7-1.7-3.3-2.7-4.3c-2.9-2.9-7.7-2.9-10.7,0c-2.9,2.9-2.9,7.7,0,10.7c1.2,1.2,3.3,2.4,5.4,3.1
		C8.9,15.8,9.4,14.6,10,13.6z"/>
	<path class="st2" d="M36.5,13.6c1.4-0.3,2.8-1,3.6-1.8c1.5-1.5,1.5-3.9,0-5.4s-3.9-1.5-5.4,0c-0.7,0.7-1.3,1.9-1.7,3.1
		c-0.9-0.8-2-1.4-3.1-2c0.7-1.7,1.7-3.3,2.7-4.3c2.9-2.9,7.7-2.9,10.7,0c2.9,2.9,2.9,7.7,0,10.7c-1.2,1.2-3.3,2.4-5.4,3.1
		C37.6,15.8,37.1,14.6,36.5,13.6z"/>
	<path class="st2" d="M17,33.3c0,0-9.6-2-15.8,5.3"/>
	<path class="st2" d="M17,37.1c0,0-10.7,1-11.8,8.4"/>
	<path class="st2" d="M29.6,33.3c0,0,9.6-2,15.8,5.3"/>
	<path class="st2" d="M29.6,37.1c0,0,10.7,1,11.8,8.4"/>
</g>
</svg>