<svg version="1.1"
	 xmlns="http://www.w3.org/2000/svg" xmlns:xlink="http://www.w3.org/1999/xlink" xmlns:a="http://ns.adobe.com/AdobeSVGViewerExtensions/3.0/"
	 x="0px" y="0px" width="43.9px" height="48px" viewBox="0 0 43.9 48" style="enable-background:new 0 0 43.9 48;"
	 xml:space="preserve">
<style type="text/css">
	.st0{fill:none;stroke:#b7373a;stroke-width:2;stroke-linecap:round;stroke-linejoin:round;stroke-miterlimit:10;}
	.st1{fill:#b7373a;}
</style>
<defs>
</defs>
<g>
	<path class="st0" d="M42.9,33.5c0,11.3-9.4,13.5-20.9,13.5S1,44.8,1,33.5s9.4-20.6,20.9-20.6S42.9,22.2,42.9,33.5z"/>
	<g>
		<path class="st0" d="M15.5,13.4c0.4-1.7,0.4-2.6,0.4-4.2c0-6-2.9-8.2-6.5-8.2S3,3.2,3,9.2c0,3.9,1.4,8.7,2.6,11.2"/>
	</g>
	<g>
		<path class="st0" d="M12.2,14.6c0.2-0.9,0.3-1.8,0.3-2.7c0-3.3-1.3-4.5-2.8-4.5s-2.8,1.2-2.8,4.5c0,2.1,0.5,4.6,1.3,6.1"/>
	</g>
	<g>
		<path class="st0" d="M28.4,13.4c-0.4-1.7-0.4-2.6-0.4-4.2c0-6,2.9-8.2,6.5-8.2s6.5,2.2,6.5,8.2c0,3.9-1.4,8.7-2.6,11.2"/>
	</g>
	<g>
		<path class="st0" d="M31.7,14.6c-0.2-0.9-0.3-1.8-0.3-2.7c0-3.3,1.3-4.5,2.8-4.5c1.6,0,2.8,1.2,2.8,4.5c0,2.1-0.5,4.6-1.3,6.1"/>
	</g>
	<g>
		<circle class="st1" cx="12.5" cy="29.7" r="1.9"/>
		<circle class="st1" cx="32.6" cy="29.7" r="1.9"/>
	</g>
	<path class="st0" d="M28.5,35.8c0,0-2.9,2.5-6,0c-3.1,2.5-6,0-6,0"/>
	<path class="st0" d="M23.5,31.7l-0.2,0.2c-0.6,0.5-1.6,0.5-2.2,0l-0.2-0.2"/>
</g>
</svg>