<svg version="1.1"
	 xmlns="http://www.w3.org/2000/svg" xmlns:xlink="http://www.w3.org/1999/xlink" xmlns:a="http://ns.adobe.com/AdobeSVGViewerExtensions/3.0/"
	 x="0px" y="0px" width="47.9px" height="39px" viewBox="0 0 47.9 39" style="enable-background:new 0 0 47.9 39;"
	 xml:space="preserve">
<style type="text/css">
	.st0{fill:none;stroke:#0f2c5b;stroke-width:2;stroke-linecap:round;stroke-linejoin:round;stroke-miterlimit:10;}
	.st1{fill:#0f2c5b;stroke:#0f2c5b;stroke-miterlimit:10;}
	.st2{fill:#0f2c5b;}
</style>
<defs>
</defs>
<g>
	<ellipse class="st0" cx="24.2" cy="19.5" rx="22.5" ry="18.5"/>
	<g>
		<path class="st0" d="M3.4,11.3c1.9-3.1,4.7-5.6,8.2-7.4C10.6,2.1,8.8,1,6.7,1C3.5,1,1,3.5,1,6.7C1,8.6,1.9,10.2,3.4,11.3z"/>
		<path class="st0" d="M44.6,11.3c-1.9-3.1-4.7-5.6-8.2-7.4c1-1.7,2.8-2.8,4.9-2.8c3.1,0,5.7,2.5,5.7,5.7
			C46.9,8.6,46,10.2,44.6,11.3z"/>
	</g>
	<g>
		<ellipse class="st0" cx="23.9" cy="21.5" rx="8.9" ry="7.4"/>
		<ellipse class="st1" cx="23.9" cy="17.8" rx="2.2" ry="1"/>
		<path class="st0" d="M29.1,21.9c0,0-2.5,2.2-5.1,0c-2.6,2.2-5.1,0-5.1,0"/>
	</g>
	<g>
		<circle class="st2" cx="12" cy="15" r="1.9"/>
		<circle class="st2" cx="36.1" cy="15" r="1.9"/>
	</g>
</g>
</svg>