<svg version="1.1"
	 xmlns="http://www.w3.org/2000/svg" xmlns:xlink="http://www.w3.org/1999/xlink" xmlns:a="http://ns.adobe.com/AdobeSVGViewerExtensions/3.0/"
	 x="0px" y="0px" width="49.1px" height="48.7px" viewBox="0 0 49.1 48.7" style="enable-background:new 0 0 49.1 48.7;"
	 xml:space="preserve">
<style type="text/css">
	.st0{fill:none;stroke:rgba(19, 51, 104, .4);stroke-width:2;stroke-linecap:round;stroke-linejoin:round;stroke-miterlimit:10;}
	.st1{fill:rgba(19, 51, 104, .4);}
	.st2{fill:rgba(19, 51, 104, .4);stroke:rgba(19, 51, 104, .4);stroke-miterlimit:10;}
</style>
<defs>
</defs>
<g>
	<path class="st0" d="M39.5,39.5c0,5.8-6.7,8.1-14.9,8.1S9.6,45.3,9.6,39.5s6.7-11.6,14.9-11.6S39.5,33.8,39.5,39.5z"/>
	<g>
		<circle class="st1" cx="19.3" cy="20.9" r="1.7"/>
		<circle class="st1" cx="29.9" cy="20.9" r="1.7"/>
	</g>
	<ellipse class="st2" cx="30.1" cy="38" rx="1.2" ry="3.5"/>
	<ellipse class="st2" cx="19" cy="38" rx="1.2" ry="3.5"/>
	<path class="st0" d="M39.5,40.2V17.6c0-8.2-6.7-14.9-14.9-14.9h0c-8.2,0-14.9,6.7-14.9,14.9v22.6"/>
	<g>
		<path class="st0" d="M11.8,9.9c0,0-5.1-1.9-4.1-8.9c0,0,4.9,4,9,3.9"/>
		<path class="st0" d="M9.6,20.9c0,0-1.1,1.7-8.6,0.5c0,0-0.3-10.3,10.1-10.3"/>
		<path class="st0" d="M1,21.4c0,0,4.8-5.9,8.8-6.1"/>
	</g>
	<g>
		<path class="st0" d="M37.3,9.9c0,0,5.1-1.9,4.1-8.9c0,0-4.9,4-9,3.9"/>
		<path class="st0" d="M39.5,20.9c0,0,1.1,1.7,8.6,0.5c0,0,0.3-10.3-10.1-10.3"/>
		<path class="st0" d="M48.1,21.4c0,0-4.8-5.9-8.8-6.1"/>
	</g>
</g>
</svg>