<svg version="1.1"
	 xmlns="http://www.w3.org/2000/svg" xmlns:xlink="http://www.w3.org/1999/xlink" xmlns:a="http://ns.adobe.com/AdobeSVGViewerExtensions/3.0/"
	 x="0px" y="0px" width="48.2px" height="39.4px" viewBox="0 0 48.2 39.4" style="enable-background:new 0 0 48.2 39.4;"
	 xml:space="preserve">
<style type="text/css">
	.st0{fill:none;stroke:rgba(19, 51, 104, .4);stroke-width:2;stroke-linecap:round;stroke-linejoin:round;stroke-miterlimit:10;}
	.st1{fill:rgba(19, 51, 104, .4);}
	.st2{fill:rgba(19, 51, 104, .4);stroke:rgba(19, 51, 104, .4);stroke-miterlimit:10;}
</style>
<defs>
</defs>
<g>
	<ellipse class="st0" cx="24.1" cy="20.6" rx="21.5" ry="17.7"/>
	<g>
		<path class="st0" d="M3.4,16.1c0,0-2.9-9-0.4-14.8c0,0,8.2-1.6,13.5,2.8"/>
		<path class="st0" d="M11.3,6c0,0-1.5-1.4-4.4-1.4"/>
	</g>
	<g>
		<path class="st0" d="M44.9,16.1c0,0,2.9-9,0.4-14.8c0,0-8.2-1.6-13.5,2.8"/>
		<path class="st0" d="M36.9,6c0,0,1.5-1.4,4.4-1.4"/>
	</g>
	<g>
		<circle class="st1" cx="14.1" cy="18.1" r="1.9"/>
		<circle class="st1" cx="34.1" cy="18.1" r="1.9"/>
	</g>
	<ellipse class="st2" cx="24.1" cy="20" rx="2.1" ry="1"/>
	<g>
		<path class="st0" d="M9.2,22.6c0,0-4.8-0.7-8.2,0.6"/>
		<path class="st0" d="M9.2,25.8c0,0-4.2,0.1-7.4,1.9"/>
		<path class="st0" d="M9.8,29.1c0,0-3.6,0-7.2,2.7"/>
	</g>
	<g>
		<path class="st0" d="M39,22.6c0,0,4.8-0.7,8.2,0.6"/>
		<path class="st0" d="M39,25.8c0,0,4.2,0.1,7.4,1.9"/>
		<path class="st0" d="M38.4,29.1c0,0,3.6,0,7.2,2.7"/>
	</g>
	<path class="st0" d="M18,24.1c0,0,2.9,2.5,6,0"/>
	<path class="st0" d="M30,24.1c0,0-2.9,2.5-6,0"/>
	<line class="st0" x1="24.4" y1="3.8" x2="24.4" y2="9.8"/>
	<line class="st0" x1="19.4" y1="3.8" x2="19.4" y2="7.8"/>
	<line class="st0" x1="28.4" y1="3.8" x2="28.4" y2="7.8"/>
</g>
</svg>