<svg version="1.1"
	 xmlns="http://www.w3.org/2000/svg" xmlns:xlink="http://www.w3.org/1999/xlink" xmlns:a="http://ns.adobe.com/AdobeSVGViewerExtensions/3.0/"
	 x="0px" y="0px" width="39.5px" height="48.7px" viewBox="0 0 39.5 48.7" style="enable-background:new 0 0 39.5 48.7;"
	 xml:space="preserve">
<style type="text/css">
	.st0{fill:none;stroke:#b7373a;stroke-width:2;stroke-linecap:round;stroke-linejoin:round;stroke-miterlimit:10;}
	.st1{fill:#b7373a;}
	.st2{fill:#b7373a;stroke:#b7373a;stroke-width:2;stroke-linecap:round;stroke-linejoin:round;stroke-miterlimit:10;}
</style>
<defs>
</defs>
<g>
	<path class="st0" d="M38.5,34.9c0,10.8-8.4,12.9-18.8,12.9S1,45.6,1,34.9s8.4-19.7,18.8-19.7S38.5,24.1,38.5,34.9z"/>
	<g>
		<path class="st0" d="M27.2,36.3c0,3.5-3.4,4.2-7.5,4.2s-7.5-0.7-7.5-4.2s3.4-6.4,7.5-6.4S27.2,32.8,27.2,36.3z"/>
		<line class="st0" x1="12.8" y1="36.5" x2="26.8" y2="36.5"/>
	</g>
	<g>
		<circle class="st1" cx="9.7" cy="28.4" r="1.9"/>
		<circle class="st1" cx="29.8" cy="28.4" r="1.9"/>
	</g>
	<path class="st2" d="M16.9,15.2c0,0-7-4.7-4.9-10s9.2-6.7,10.3,2.2c0,0,5-2.3,4.1,2.1c-0.6,3-4.3,5.7-4.3,5.7"/>
</g>
</svg>