<svg version="1.1"
	 xmlns="http://www.w3.org/2000/svg" xmlns:xlink="http://www.w3.org/1999/xlink" xmlns:a="http://ns.adobe.com/AdobeSVGViewerExtensions/3.0/"
	 x="0px" y="0px" width="52.9px" height="38px" viewBox="0 0 52.9 38" style="enable-background:new 0 0 52.9 38;"
	 xml:space="preserve">
<style type="text/css">
	.st0{fill:none;stroke:#0f2c5b;stroke-width:2;stroke-linecap:round;stroke-linejoin:round;stroke-miterlimit:10;}
	.st1{fill:#0f2c5b;stroke:#0f2c5b;stroke-miterlimit:10;}
	.st2{fill:#0f2c5b;}
</style>
<defs>
</defs>
<g>
	<g>
		<path class="st0" d="M47.4,23.5C47.4,34.8,38,37,26.5,37S5.5,34.8,5.5,23.5S14.9,2.9,26.5,2.9S47.4,12.2,47.4,23.5z"/>
		<path class="st0" d="M18.4,4.5c0,0-6.8-10.7-15.8,5.5c0,0-5.4,8.8,3.6,8"/>
		<path class="st0" d="M34.5,4.5c0,0,6.8-10.7,15.8,5.5c0,0,5.4,8.8-3.6,8"/>
		<path class="st0" d="M39.2,24.9c0,4.9-5.7,6.9-12.8,6.9s-12.8-2-12.8-6.9S19.3,15,26.4,15S39.2,20,39.2,24.9z"/>
		<ellipse class="st1" cx="21.2" cy="24.1" rx="1.2" ry="3.5"/>
		<ellipse class="st1" cx="31.6" cy="24.1" rx="1.2" ry="3.5"/>
		<g>
			<circle class="st2" cx="16.4" cy="12.6" r="1.9"/>
			<circle class="st2" cx="36.5" cy="12.6" r="1.9"/>
		</g>
	</g>
	<ellipse class="st1" cx="31.6" cy="24.1" rx="1.2" ry="3.5"/>
</g>
</svg>