<svg version="1.1"
	 xmlns="http://www.w3.org/2000/svg" xmlns:xlink="http://www.w3.org/1999/xlink" xmlns:a="http://ns.adobe.com/AdobeSVGViewerExtensions/3.0/"
	 x="0px" y="0px" width="47.9px" height="39px" viewBox="0 0 47.9 39" style="enable-background:new 0 0 47.9 39;"
	 xml:space="preserve">
<style type="text/css">
	.st0{fill:none;stroke:#0f2c5b;stroke-width:2;stroke-linecap:round;stroke-linejoin:round;stroke-miterlimit:10;}
	.st1{fill:#0f2c5b;}
	.st2{fill:#0f2c5b;stroke:#0f2c5b;stroke-miterlimit:10;}
</style>
<defs>
</defs>
<g>
	<ellipse class="st0" cx="24.2" cy="19.5" rx="22.5" ry="18.5"/>
	<g>
		<path class="st0" d="M3.4,11.3c1.9-3.1,4.7-5.6,8.2-7.4C10.6,2.1,8.8,1,6.7,1C3.5,1,1,3.5,1,6.7C1,8.6,1.9,10.2,3.4,11.3z"/>
		<path class="st0" d="M44.6,11.3c-1.9-3.1-4.7-5.6-8.2-7.4c1-1.7,2.8-2.8,4.9-2.8c3.1,0,5.7,2.5,5.7,5.7
			C46.9,8.6,46,10.2,44.6,11.3z"/>
	</g>
	<g>
		<circle class="st1" cx="12" cy="15" r="1.9"/>
		<circle class="st1" cx="36.1" cy="15" r="1.9"/>
	</g>
	<g>
		<ellipse class="st2" cx="24.2" cy="19" rx="3.3" ry="1.5"/>
		<path class="st0" d="M24.7,17.5h-4.2c-3.2,0-5.8,2.3-5.8,5.2V23l0,0.4c0,1.9,1.3,3.8,3.3,4.4c2.2,0.7,4.3,0,5.6-1.4
			c0.5-0.6,1.4-0.6,1.9,0c0.9,1.1,2.3,1.8,4,1.7c2.4-0.1,4.3-2.1,4.3-4.3V23v-0.3c0-2.9-2.6-5.2-5.8-5.2H24.7z"/>
	</g>
	<line class="st0" x1="24.3" y1="1.5" x2="24.3" y2="11.5"/>
	<line class="st0" x1="20.3" y1="4.5" x2="28.3" y2="4.5"/>
	<line class="st0" x1="21.3" y1="8.5" x2="27.3" y2="8.5"/>
	<line class="st0" x1="1.7" y1="19.5" x2="8.3" y2="20.5"/>
	<line class="st0" x1="3" y1="25.6" x2="8.3" y2="24.7"/>
	<line class="st0" x1="45.4" y1="25.6" x2="40.1" y2="24.7"/>
	<line class="st0" x1="46.7" y1="19.5" x2="40.1" y2="20.5"/>
	<line class="st0" x1="19.3" y1="28.5" x2="19.3" y2="30.5"/>
	<line class="st0" x1="29.3" y1="28.5" x2="29.3" y2="30.5"/>
</g>
</svg>