<svg version="1.1"
	 xmlns="http://www.w3.org/2000/svg" xmlns:xlink="http://www.w3.org/1999/xlink" xmlns:a="http://ns.adobe.com/AdobeSVGViewerExtensions/3.0/"
	 x="0px" y="0px" width="50.6px" height="46.6px" viewBox="0 0 50.6 46.6" style="enable-background:new 0 0 50.6 46.6;"
	 xml:space="preserve">
<style type="text/css">
	.st0{fill:none;stroke:rgba(19, 51, 104, .4);stroke-width:2;stroke-linecap:round;stroke-linejoin:round;stroke-miterlimit:10;}
	.st1{fill:rgba(19, 51, 104, .4);}
	.st2{fill:rgba(19, 51, 104, .4);stroke:rgba(19, 51, 104, .4);stroke-miterlimit:10;}
</style>
<defs>
</defs>
<g>
	<g>
		<ellipse class="st0" cx="25.4" cy="25.8" rx="18.4" ry="15.2"/>
		<g>
			<path class="st0" d="M8.3,19c1.5-2.5,3.9-4.6,6.7-6.1c-0.8-1.4-2.3-2.3-4-2.3c-2.6,0-4.6,2.1-4.6,4.6C6.4,16.8,7.2,18.2,8.3,19z"
				/>
			<path class="st0" d="M42.1,19c-1.5-2.5-3.9-4.6-6.7-6.1c0.8-1.4,2.3-2.3,4-2.3c2.6,0,4.6,2.1,4.6,4.6
				C44.1,16.8,43.3,18.2,42.1,19z"/>
		</g>
		<g>
			<circle class="st1" cx="15.4" cy="22.1" r="1.5"/>
			<circle class="st1" cx="35.1" cy="22.1" r="1.5"/>
		</g>
		<g>
			<ellipse class="st2" cx="25.4" cy="25.4" rx="2.7" ry="1.2"/>
			<path class="st0" d="M25.8,24.1h-3.5c-2.6,0-4.7,1.9-4.7,4.3v0.3l0,0.3c0,1.6,1,3.1,2.7,3.6c1.8,0.6,3.6,0,4.6-1.2
				c0.4-0.5,1.2-0.5,1.5,0c0.7,0.9,1.9,1.5,3.2,1.4c2-0.1,3.5-1.7,3.5-3.5v-0.7v-0.3c0-2.4-2.1-4.3-4.7-4.3H25.8z"/>
		</g>
		<line class="st0" x1="20.6" y1="33.9" x2="20.6" y2="34.9"/>
		<line class="st0" x1="30.6" y1="33.9" x2="30.6" y2="34.9"/>
	</g>
	<path class="st0" d="M49.6,20.7c0-3.1-1.9-5.7-4.5-6.7c0-0.1,0-0.3,0-0.4c0-4.3-3.4-7.8-7.6-7.8c-1.3,0-2.5,0.3-3.6,0.9
		C32.4,3.3,29.1,1,25.3,1s-7.1,2.3-8.6,5.7c-1.1-0.6-2.3-0.9-3.6-0.9c-4.2,0-7.6,3.5-7.6,7.8c0,0.1,0,0.3,0,0.4
		C2.9,15,1,17.6,1,20.7c0,2.3,1,4.3,2.6,5.6c-0.7,1-1.4,2.3-1.4,3.6c0,3.3,2.3,6,5.3,6.3c0,0,0,0,0,0c0,3.5,3,6.3,6.4,6.3
		c0.9,0,1.9-0.2,2.7-0.6c1,2.2,3.2,3.7,5.7,3.7c1.1,0,2.1-0.3,2.9-0.7c0.9,0.5,1.9,0.7,2.9,0.7c2.5,0,4.6-1.5,5.6-3.7
		c0.8,0.4,1.7,0.6,2.6,0.6c3.4,0,6.1-2.8,6.1-6.3c0,0,0,0,0,0c3-0.3,5.6-3,5.6-6.3c0-1.3-0.4-2.6-1.1-3.6
		C48.6,25,49.6,22.9,49.6,20.7z"/>
</g>
</svg>