<svg version="1.1"
	 xmlns="http://www.w3.org/2000/svg" xmlns:xlink="http://www.w3.org/1999/xlink" xmlns:a="http://ns.adobe.com/AdobeSVGViewerExtensions/3.0/"
	 x="0px" y="0px" width="37.4px" height="48px" viewBox="0 0 37.4 48" style="enable-background:new 0 0 37.4 48;"
	 xml:space="preserve">
<style type="text/css">
	.st0{fill:none;stroke:#b7373a;stroke-width:2;stroke-linecap:round;stroke-linejoin:round;stroke-miterlimit:10;}
	.st1{fill:#b7373a;stroke:#b7373a;stroke-miterlimit:10;}
	.st2{fill:#b7373a;}
</style>
<defs>
</defs>
<g>
	<path class="st0" d="M2.7,22.9V17c0-8.8,7.2-16,16-16h0c8.8,0,16,7.2,16,16v5.9"/>
	<path class="st0" d="M29.8,37.8l-11.1-5.9L7.6,37.8c-3,1.6-6.6-0.6-6.6-4.1v-8.3C1,24.1,2.1,23,3.4,23H34c1.3,0,2.4,1.1,2.4,2.5
		v8.3C36.4,37.2,32.8,39.4,29.8,37.8z"/>
	<path class="st0" d="M11.5,36.4v10.4c0,0-4.6,1.6-4.6-7.8"/>
	<path class="st0" d="M25.5,36.4v10.4c0,0,4.6,1.6,4.6-7.8"/>
	<ellipse class="st1" cx="19.1" cy="26.2" rx="2.9" ry="1.3"/>
	<g>
		<circle class="st2" cx="11.4" cy="18.8" r="2"/>
		<circle class="st2" cx="26.9" cy="18.8" r="2"/>
	</g>
	<path class="st0" d="M12.1,38.4c0,0,2.8,1.6,6.6,1.6s6.8-1.6,6.8-1.6"/>
</g>
</svg>