<svg version="1.1"
	 xmlns="http://www.w3.org/2000/svg" xmlns:xlink="http://www.w3.org/1999/xlink" xmlns:a="http://ns.adobe.com/AdobeSVGViewerExtensions/3.0/"
	 x="0px" y="0px" width="46.2px" height="49px" viewBox="0 0 46.2 49" style="enable-background:new 0 0 46.2 49;"
	 xml:space="preserve">
<style type="text/css">
	.st0{fill:none;stroke:#b7373a;stroke-width:2;stroke-linecap:round;stroke-linejoin:round;stroke-miterlimit:10;}
	.st1{fill:#b7373a;}
</style>
<defs>
</defs>
<g>
	<path class="st0" d="M39.6,20.7c0.2-0.9,0.3-1.9,0.3-2.9C39.9,8.5,32.4,1,23.1,1C13.8,1,6.3,8.5,6.3,17.8c0,1,0.1,1.9,0.3,2.9
		c-3,2.9-4.7,6.6-4.7,10.6c0,9.3,9.5,16.8,21.3,16.8c11.7,0,21.3-7.5,21.3-16.8C44.4,27.2,42.6,23.5,39.6,20.7z"/>
	<path class="st0" d="M22.9,42.7c8.6,0,15.6-5.5,15.6-12.3c0-2.9-1.3-5.6-3.5-7.7c0.1-0.7,0.2-1.4,0.2-2.1C35.2,1.6,23,10.3,23,10.3
		S10.8,1.6,10.8,20.6c0,0.7,0.1,1.4,0.2,2.1c-2.2,2.1-3.5,4.8-3.5,7.7c0,6.8,7,12.3,15.6,12.3"/>
	<path class="st0" d="M4.2,23.6C2.3,22.4,1,20.3,1,17.9c0-3.6,2.9-6.6,6.6-6.6"/>
	<path class="st0" d="M42,23.6c1.9-1.1,3.2-3.2,3.2-5.6c0-3.6-2.9-6.6-6.6-6.6"/>
	<path class="st0" d="M12.2,31.7c0,0,3.9,3.4,10.9,3.4s10.3-3.4,10.3-3.4"/>
	<g>
		<circle class="st1" cx="17.6" cy="19.3" r="1.8"/>
		<circle class="st1" cx="29" cy="19.3" r="1.8"/>
	</g>
	<g>
		<ellipse transform="matrix(0.7071 -0.7071 0.7071 0.7071 -11.5525 26.2374)" class="st1" cx="25.9" cy="27.1" rx="1.1" ry="1.9"/>
		<ellipse transform="matrix(0.7071 -0.7071 0.7071 0.7071 -13.1791 22.3104)" class="st1" cx="20.3" cy="27.1" rx="1.9" ry="1.1"/>
	</g>
</g>
</svg>