<svg version="1.1"
	 xmlns="http://www.w3.org/2000/svg" xmlns:xlink="http://www.w3.org/1999/xlink" xmlns:a="http://ns.adobe.com/AdobeSVGViewerExtensions/3.0/"
	 x="0px" y="0px" width="46.4px" height="41px" viewBox="0 0 46.4 41" style="enable-background:new 0 0 46.4 41;"
	 xml:space="preserve">
<style type="text/css">
	.st0{fill:none;stroke:#0f2c5b;stroke-width:2;stroke-linecap:round;stroke-linejoin:round;stroke-miterlimit:10;}
	.st1{fill:#0f2c5b;}
</style>
<defs>
</defs>
<g>
	<path class="st0" d="M42.1,15.2c1.9,3.2,2.9,6.8,2.9,10.7c0,11.8-9.8,14.1-21.9,14.1S1.3,37.7,1.3,25.9c0-3.9,1.1-7.6,2.9-10.7"/>
	<path class="st0" d="M16,5.6c2.2-0.8,4.7-1.2,7.2-1.2c2.4,0,4.7,0.4,6.8,1.1"/>
	<path class="st0" d="M44.7,22.2C42.9,30.9,34,32.7,23.2,32.7C12.6,32.7,3.8,31,1.8,22.6"/>
	<g>
		<circle class="st1" cx="8.9" cy="8.9" r="2"/>
		<circle class="st0" cx="8.9" cy="8.9" r="7.9"/>
		<circle class="st0" cx="8.9" cy="8.9" r="4.3"/>
	</g>
	<g>
		<circle class="st1" cx="37.5" cy="8.9" r="2"/>
		<circle class="st0" cx="37.5" cy="8.9" r="7.9"/>
		<circle class="st0" cx="37.5" cy="8.9" r="4.3"/>
	</g>
	<g>
		<ellipse transform="matrix(0.7071 -0.7071 0.7071 0.7071 -9.9495 25.9591)" class="st1" cx="26.4" cy="25" rx="1.1" ry="2"/>
		<ellipse transform="matrix(0.7071 -0.7071 0.7071 0.7071 -11.9316 21.174)" class="st1" cx="19.6" cy="25" rx="2" ry="1.1"/>
	</g>
</g>
</svg>