<svg version="1.1"
	 xmlns="http://www.w3.org/2000/svg" xmlns:xlink="http://www.w3.org/1999/xlink" xmlns:a="http://ns.adobe.com/AdobeSVGViewerExtensions/3.0/"
	 x="0px" y="0px" width="53.6px" height="41.7px" viewBox="0 0 53.6 41.7" style="enable-background:new 0 0 53.6 41.7;"
	 xml:space="preserve">
<style type="text/css">
	.st0{fill:none;stroke:#0f2c5b;stroke-width:2;stroke-linecap:round;stroke-linejoin:round;stroke-miterlimit:10;}
	.st1{fill:#0f2c5b;}
</style>
<defs>
</defs>
<g>
	<ellipse class="st0" cx="26.8" cy="23" rx="20.5" ry="17.7"/>
	<g>
		<g>
			<circle class="st1" cx="16.3" cy="21.3" r="2"/>
			<circle class="st1" cx="37.3" cy="21.3" r="2"/>
		</g>
		<path class="st1" d="M26.8,32.8L26.8,32.8c-2.7,0-4.9-2.2-4.9-4.9v-6c0-2.7,2.2-4.9,4.9-4.9h0c2.7,0,4.9,2.2,4.9,4.9v6
			C31.7,30.6,29.5,32.8,26.8,32.8z"/>
	</g>
	<g>
		<path class="st0" d="M18.8,6.6c0,0-4.5-9.1-11.4-4.1c-6.3,4.6-6.9,9.3-6.2,10.3c1.1,1.5,3.5,0.6,3.5,0.6s-1,4.8,2.7,3.8"/>
		<path class="st0" d="M16.3,7.7c0,0-3.6-5.2-9.2,2.4"/>
	</g>
	<g>
		<path class="st0" d="M34.8,6.6c0,0,4.5-9.1,11.4-4.1c6.3,4.6,6.9,9.3,6.2,10.3c-1.1,1.5-3.5,0.6-3.5,0.6s1,4.8-2.7,3.8"/>
		<path class="st0" d="M37.3,7.7c0,0,3.6-5.2,9.2,2.4"/>
	</g>
</g>
</svg>