<svg version="1.1"
	 xmlns="http://www.w3.org/2000/svg" xmlns:xlink="http://www.w3.org/1999/xlink" xmlns:a="http://ns.adobe.com/AdobeSVGViewerExtensions/3.0/"
	 x="0px" y="0px" width="48px" height="45.2px" viewBox="0 0 48 45.2" style="enable-background:new 0 0 48 45.2;"
	 xml:space="preserve">
<style type="text/css">
	.st0{fill:none;stroke:rgba(19, 51, 104, .4)s;stroke-width:2;stroke-linecap:round;stroke-linejoin:round;stroke-miterlimit:10;}
	.st1{fill:rgba(19, 51, 104, .4)s;}
</style>
<defs>
</defs>
<g>
	<path class="st0" d="M46,29.7c0,12.2-9.9,14.5-22,14.5S2,41.8,2,29.7S11.8,7.5,24,7.5S46,17.5,46,29.7z"/>
	<path class="st0" d="M7.9,14.6c1.5-1.6,3.1-2.9,5-4L3.3,1c-3.1,3.1-3.1,8.2,0,11.3C4.6,13.6,6.2,14.3,7.9,14.6z"/>
	<path class="st0" d="M40.1,14.6c-1.5-1.6-3.1-2.9-5-4L44.7,1c3.1,3.1,3.1,8.2,0,11.3C43.4,13.6,41.8,14.3,40.1,14.6z"/>
	<g>
		<circle class="st1" cx="13.6" cy="25" r="1.8"/>
		<circle class="st1" cx="34.4" cy="25" r="1.8"/>
	</g>
	<g>
		<ellipse transform="matrix(0.7071 -0.7071 0.7071 0.7071 -20.8469 24.9788)" class="st1" cx="19.7" cy="37.7" rx="1.1" ry="1.9"/>
		<ellipse transform="matrix(0.7071 -0.7071 0.7071 0.7071 -18.3416 31.0272)" class="st1" cx="28.3" cy="37.7" rx="1.9" ry="1.1"/>
	</g>
	<path class="st0" d="M28.9,29.4c0,2.7-2.2,4.9-4.9,4.9s-4.9-2.2-4.9-4.9s2.2-14,4.9-14S28.9,26.7,28.9,29.4z"/>
</g>
</svg>