<svg version="1.1"
	 xmlns="http://www.w3.org/2000/svg" xmlns:xlink="http://www.w3.org/1999/xlink" xmlns:a="http://ns.adobe.com/AdobeSVGViewerExtensions/3.0/"
	 x="0px" y="0px" width="44.5px" height="46px" viewBox="0 0 44.5 46" style="enable-background:new 0 0 44.5 46;"
	 xml:space="preserve">
<style type="text/css">
	.st0{fill:none;stroke:rgba(19, 51, 104, .4);stroke-width:2;stroke-linecap:round;stroke-linejoin:round;stroke-miterlimit:10;}
</style>
<defs>
</defs>
<g>
	<path class="st0" d="M43.5,45c0-33-21.3-44-21.3-44S1,12,1,45H43.5z"/>
	<path class="st0" d="M22.5,27.7c6.1,0,12.3,4.3,13.6,10c0.2-1,0.4-2,0.4-3c0-7.2-6.8-13-14-13c-7.2,0-14,5.8-14,13c0,1,0.1,2,0.4,3
		C10.2,32,16.4,27.7,22.5,27.7z"/>
	<line class="st0" x1="18.7" y1="23" x2="18.7" y2="25"/>
	<line class="st0" x1="14.7" y1="24" x2="14.7" y2="27"/>
	<line class="st0" x1="10.7" y1="29" x2="10.7" y2="30"/>
	<line class="st0" x1="26.7" y1="23" x2="26.7" y2="25"/>
	<line class="st0" x1="30.7" y1="25" x2="30.7" y2="27"/>
	<line class="st0" x1="34.7" y1="29" x2="34.7" y2="30"/>
	<line class="st0" x1="14.4" y1="7.4" x2="16.4" y2="9.1"/>
	<line class="st0" x1="30.2" y1="7.4" x2="28.1" y2="9.1"/>
	<line class="st0" x1="22.7" y1="22" x2="22.7" y2="24"/>
</g>
</svg>