<svg version="1.1"
	 xmlns="http://www.w3.org/2000/svg" xmlns:xlink="http://www.w3.org/1999/xlink" xmlns:a="http://ns.adobe.com/AdobeSVGViewerExtensions/3.0/"
	 x="0px" y="0px" width="47.8px" height="47.2px" viewBox="0 0 47.8 47.2" style="enable-background:new 0 0 47.8 47.2;"
	 xml:space="preserve">
<style type="text/css">
	.st0{fill:#b7373a;}
	.st1{fill:none;stroke:#b7373a;stroke-width:2;stroke-linecap:round;stroke-linejoin:round;stroke-miterlimit:10;}
</style>
<defs>
</defs>
<g>
	<g>
		<ellipse transform="matrix(0.7071 -0.7071 0.7071 0.7071 -21.9805 26.6049)" class="st0" cx="21.1" cy="39.8" rx="1.1" ry="1.9"/>
		<ellipse transform="matrix(0.7071 -0.7071 0.7071 0.7071 -20.3539 30.5319)" class="st0" cx="26.7" cy="39.8" rx="1.9" ry="1.1"/>
	</g>
	<path class="st1" d="M23.9,46.2c11.5,0,8.3-10.8,8.3-10.8c6.7-6.9,5.8-18.5,5.8-18.5c-3-5-4.8-6.6-4.8-6.6S36.2,1,31.8,1
		s-3.9,8.2-3.9,8.2h-4h-4c0,0,0.5-8.2-3.9-8.2s-1.5,9.2-1.5,9.2s-1.9,1.6-4.8,6.6c0,0-0.9,11.6,5.8,18.5
		C15.6,35.3,12.4,46.2,23.9,46.2"/>
	<path class="st1" d="M13,11.9c-0.3-1.9-1-4.3-2.6-6C7,2.6,1,3.2,1,3.2s-0.6,6,2.8,9.3c2,2,4.8,2.6,6.9,2.7
		C11.6,13.8,12.4,12.7,13,11.9z"/>
	<path class="st1" d="M34.8,11.9c0.3-1.9,1-4.3,2.6-6c3.3-3.3,9.3-2.8,9.3-2.8s0.6,6-2.8,9.3c-2,2-4.8,2.6-6.9,2.7
		C36.2,13.8,35.4,12.7,34.8,11.9z"/>
	<g>
		<circle class="st0" cx="17.1" cy="25.5" r="1.7"/>
		<circle class="st0" cx="30.7" cy="25.5" r="1.7"/>
	</g>
</g>
</svg>