<svg version="1.1"
	 xmlns="http://www.w3.org/2000/svg" xmlns:xlink="http://www.w3.org/1999/xlink" xmlns:a="http://ns.adobe.com/AdobeSVGViewerExtensions/3.0/"
	 x="0px" y="0px" width="35.1px" height="49px" viewBox="0 0 35.1 49" style="enable-background:new 0 0 35.1 49;"
	 xml:space="preserve">
<style type="text/css">
	.st0{fill:none;stroke:#0f2c5b;stroke-width:2;stroke-linecap:round;stroke-linejoin:round;stroke-miterlimit:10;}
	.st1{fill:#0f2c5b;}
	.st2{fill:#0f2c5b;stroke:#0f2c5b;stroke-width:2;stroke-linecap:round;stroke-linejoin:round;stroke-miterlimit:10;}
</style>
<defs>
</defs>
<g>
	<path class="st0" d="M32.4,39.9c0,5.8-6.7,8.1-14.9,8.1S2.6,45.6,2.6,39.9s6.7-11.6,14.9-11.6S32.4,34.1,32.4,39.9z"/>
	<g>
		<ellipse transform="matrix(0.7071 -0.7071 0.7071 0.7071 -21.0746 20.3421)" class="st1" cx="14" cy="35.6" rx="1.1" ry="1.9"/>
		<ellipse transform="matrix(0.7071 -0.7071 0.7071 0.7071 -19.1773 24.9228)" class="st1" cx="20.5" cy="35.6" rx="1.9" ry="1.1"/>
	</g>
	<path class="st0" d="M31.3,35.6c0,0,0.6-27-13.8-27s-13.8,27-13.8,27"/>
	<g>
		<path class="st2" d="M14.1,8.4c0,0-3-2.5-1.5-5.2s6.5-3.5,7.3,1.1c0,0,3.6-1.2,2.9,1.1c-0.4,1.6-1.1,2.9-1.1,2.9"/>
	</g>
	<g>
		<circle class="st1" cx="12.3" cy="21.2" r="1.7"/>
		<circle class="st1" cx="22.9" cy="21.2" r="1.7"/>
	</g>
	<g>
		<line class="st0" x1="4.2" y1="27.6" x2="8" y2="26.7"/>
		<line class="st0" x1="6" y1="21.4" x2="8" y2="21.4"/>
		<line class="st0" x1="8" y1="15.4" x2="10.2" y2="16"/>
		<line class="st0" x1="11.5" y1="10.6" x2="13.5" y2="12.4"/>
	</g>
	<g>
		<line class="st0" x1="30.8" y1="27.6" x2="27" y2="26.7"/>
		<line class="st0" x1="29" y1="21.4" x2="27" y2="21.4"/>
		<line class="st0" x1="27.1" y1="15.4" x2="24.9" y2="16"/>
		<line class="st0" x1="23.6" y1="10.6" x2="21.6" y2="12.4"/>
	</g>
	<g>
		<path class="st0" d="M26.3,13.5c2.3-0.4,5.3-1.9,6.4-2.8c1.7-1.4,1.9-3.9,0.5-5.6c-1.4-1.7-3.9-1.9-5.6-0.5
			c-0.9,0.8-2.4,2.8-3.4,4.7"/>
		<path class="st0" d="M25.2,11c0,0,2.1-1.9,3.1-2.5"/>
	</g>
	<g>
		<path class="st0" d="M8.8,13.5c-2.3-0.4-5.3-1.9-6.4-2.8C0.7,9.2,0.5,6.7,1.9,5.1s3.9-1.9,5.6-0.5c0.9,0.8,2.4,2.8,3.4,4.7"/>
		<path class="st0" d="M9.9,11c0,0-2.1-1.9-3.1-2.5"/>
	</g>
</g>
</svg>