<svg version="1.1"
	 xmlns="http://www.w3.org/2000/svg" xmlns:xlink="http://www.w3.org/1999/xlink" xmlns:a="http://ns.adobe.com/AdobeSVGViewerExtensions/3.0/"
	 x="0px" y="0px" width="43.6px" height="48.1px" viewBox="0 0 43.6 48.1" style="enable-background:new 0 0 43.6 48.1;"
	 xml:space="preserve">
<style type="text/css">
	.st0{fill:none;stroke:#b7373a;stroke-width:2;stroke-linecap:round;stroke-linejoin:round;stroke-miterlimit:10;}
</style>
<defs>
</defs>
<g>
	<path class="st0" d="M26.8,28.7H5.6V6.3h21.2c0.6,0,1,0.4,1,1v20.4C27.8,28.2,27.4,28.7,26.8,28.7z"/>
	<path class="st0" d="M27.8,12h13.8c0.8,0,1.3,0.8,0.9,1.4l-6.1,9.8l6.1,9.8c0.4,0.6-0.1,1.4-0.9,1.4H21.1v-5.7"/>
	<line class="st0" x1="27.8" y1="28.7" x2="21.1" y2="34.4"/>
	<path class="st0" d="M4.6,47.1H2c-0.6,0-1-0.4-1-1V3.3C1,2,2,1,3.3,1h0c1.3,0,2.3,1,2.3,2.3v42.9C5.6,46.7,5.1,47.1,4.6,47.1z"/>
</g>
</svg>